<?xml version="1.0" encoding="utf-8"?>
<!-- Generator: Adobe Illustrator 27.5.0, SVG Export Plug-In . SVG Version: 6.00 Build 0)  -->
<svg version="1.1" xmlns="http://www.w3.org/2000/svg" xmlns:xlink="http://www.w3.org/1999/xlink" x="0px" y="0px"
	 viewBox="0 0 500 500" style="enable-background:new 0 0 500 500;" xml:space="preserve">
<g id="BACKGROUND">
</g>
<g id="OBJECTS">
	<g>
		<defs>
			<rect id="SVGID_1_" width="500" height="500"/>
		</defs>
		<clipPath id="SVGID_00000078727059419632643410000002504757291873412226_">
			<use xlink:href="#SVGID_1_"  style="overflow:visible;"/>
		</clipPath>
		<g style="clip-path:url(#SVGID_00000078727059419632643410000002504757291873412226_);">
			<rect style="fill:#88D4D0;" width="500" height="500"/>
			<g>
				<path style="fill:#93E6E1;" d="M-9.852,142.53c17.266-27.793,48.011-45.209,79.909-52.494
					c31.898-7.285,65.144-5.48,97.671-1.932c32.526,3.548,65.013,8.807,97.728,8.308c42.182-0.644,83.579-10.835,125.483-15.711
					c41.904-4.876,86.361-3.95,123.555,15.957V71.919c-78.076-14.329-157.063,17.615-236.428,19.17
					c-50.007,0.98-99.343-10.474-149.141-15.156c-49.797-4.682-102.889-1.774-145.184,24.926
					C-15.387,114.952-14.118,129.069-9.852,142.53z"/>
				<path style="fill:#355E2C;" d="M471.818,257.78c-1.978-2.3-5.637-4.585-8.491-3.559c2.3-1.879,3.312-5.194,2.453-8.037
					c-0.859-2.843-3.537-5.043-6.492-5.334c-3.396-0.334-6.545,0.807-9.401,2.674c2.57-2.055,3.383-6.011,1.831-8.913
					c-1.552-2.902-4.973-4.684-8.109-3.686c2.182-2.318,2.774-5.996,1.43-8.882c-1.344-2.886-4.388-4.331-7.566-4.153
					c2.055-3.664,1.204-8.708-1.939-11.495c-3.143-2.787-8.253-3.028-11.645-0.549v71.867h48.212
					C476.647,272.113,476.522,263.249,471.818,257.78z"/>
				<path style="fill:#355E2C;" d="M111.989,198.503c-3.363-1.729-7.941-0.516-10.008,2.65s-1.335,7.845,1.601,10.229
					c-3.831-1.195-7.88-0.282-10.31,2.912c-2.429,3.194-2.612,7.922-0.437,11.295c-2.159-2.346-5.03-4.014-8.211-4.241
					c-3.181-0.227-6.548,1.239-8.15,3.997c-1.346,2.318-1.135,5.476,0.501,7.53c-3.346-2.675-9.04-2.132-12.202,0.911
					c-3.528,3.395-3.352,9.85,0.356,13.046c-5.449,0.977-10.699,6.08-11.547,11.55c-0.848,5.47,2.096,11.324,6.993,13.905H116
					V197.98C115.162,198.116,112.828,198.368,111.989,198.503z"/>
				<g>
					<path style="fill:#7A9C24;" d="M500,278.79V500H0V278.79c69.87-18.47,147.8-29.44,230.17-30.96
						c6.58-0.13,13.19-0.19,19.83-0.19c3.21,0,6.42,0.01,9.62,0.04C345.76,248.45,427.24,259.56,500,278.79z"/>
					<path style="fill:#88A622;" d="M500,312.17V500H27.74C16.86,492,7.54,483.47,0,474.5V362.92
						c45.74-54.35,156.34-92.67,285.5-92.67C368.89,270.25,444.54,286.23,500,312.17z"/>
					<path style="fill:#EAA969;" d="M-5,505v-31.056l4.885-0.113c76.352-1.763,152.896-20.038,221.354-52.85
						c15.259-7.305,32.707-16.537,46.439-29.639c14.279-13.624,22.797-30.024,23.985-46.179
						c1.333-18.217-6.791-38.357-22.289-55.254c-15.225-16.611-28.585-28.674-42.045-37.965l-12.761-8.808l15.503-0.306
						c6.417-0.126,13.122-0.191,19.929-0.191c3.226,0,6.452,0.01,9.668,0.04l1.149,0.011l1.03,0.512
						c32.716,16.27,64.222,32.92,90.049,57.624c31.772,30.386,48.534,69.847,44.837,105.558
						c-3.328,32.263-23.476,64.495-55.276,88.431c-4.229,3.189-8.683,6.265-13.612,9.402L326.616,505H-5z"/>
					<path style="fill:#EDCB8A;" d="M391.751,409.48c-3.53,34.22-25.82,64.26-53.31,84.95c-4.31,3.25-8.75,6.29-13.29,9.18H-0.009
						v-21.17c77.11-1.78,153.84-20,223.4-53.34c17.11-8.19,34.01-17.44,47.73-30.53c13.73-13.1,24.13-30.52,25.52-49.43
						c1.59-21.73-8.87-42.95-23.59-59c-10.31-11.25-21.34-22.18-33.39-31.67c-3.09-2.44-6.26-4.79-9.5-7.03
						c6.58-0.13,13.19-0.19,19.83-0.19c3.21,0,6.42,0.01,9.62,0.04c31.67,15.75,63.33,32.38,88.82,56.76
						C375.951,334.37,395.671,371.61,391.751,409.48z"/>
					<path style="fill:#FFDE9F;" d="M357.57,405.87c-3.53,34.22-25.82,64.26-53.31,84.95c-4.31,3.25-8.75,6.29-13.29,9.18H0v-21.17
						c77.11-1.78,153.84-20,223.4-53.34c17.11-8.19,34.01-17.44,47.73-30.53c13.73-13.1,24.13-30.52,25.52-49.43
						c1.59-21.73-8.87-42.95-23.59-59c-10.31-11.25-21.34-22.18-33.39-31.67c26.8,13.74,52.92,28.86,74.58,49.58
						C341.77,330.76,361.49,368,357.57,405.87z"/>
					<ellipse style="fill:#EDCB8A;" cx="125.814" cy="493.204" rx="97.561" ry="19.586"/>
				</g>
				<g>
					<g>
						<rect x="91" y="245.5" style="fill:#5E3605;" width="2" height="19.75"/>
					</g>
					<path style="fill:#748F1A;" d="M105.75,240.75c0,6.075-6.156,11-13.75,11s-13.75-4.925-13.75-11s6.156-21,13.75-21
						S105.75,234.675,105.75,240.75z"/>
				</g>
				<g>
					<g>
						<rect x="444.902" y="250.5" style="fill:#5E3605;" width="2" height="19.75"/>
					</g>
					<path style="fill:#748F1A;" d="M459.652,245.75c0,6.075-6.156,11-13.75,11s-13.75-4.925-13.75-11s6.156-21,13.75-21
						S459.652,239.675,459.652,245.75z"/>
				</g>
				<path style="fill:#FEF7CB;" d="M63.823,50.543c-0.699-2.035-0.774-4.279-0.214-6.356c0.692-2.564,2.628-5.014,5.261-5.362
					c2.565-0.34,5.038,1.432,6.324,3.678c1.286,2.246,1.636,4.889,1.961,7.456c0.956-2.18,3.441-2.749,5.734-2.11
					c2.293,0.639,3.921,3.103,3.612,5.463c1.543-0.973,4.264-1.332,5.949-0.635c1.686,0.697,2.993,2.246,3.397,4.025
					c4.735,0.123,9.896,1.876,13.486,4.966H30.771c4.836-3.75,11.192-5.669,17.24-4.736c0.708-3.441,2.94-7.044,6.193-8.372
					C57.456,47.23,60.908,48.581,63.823,50.543z"/>
				<path style="fill:#FEF7CB;" d="M410.503,19.013c0.393-5.099,5.295-9.417,10.403-9.163c5.108,0.254,9.558,5.038,9.442,10.15
					c1.762-1.111,4.657-1.404,6.575-0.591c1.917,0.814,3.388,2.606,3.813,4.645c7.685-0.255,16.018,0.91,22.903,4.333h-79.641
					c4.767-3.684,10.826-5.203,16.631-3.589C402.351,20.35,405.942,17.615,410.503,19.013z"/>
				<path style="fill:#FEF7CB;" d="M494.668,120.667h-45.001c3.325-3.053,7.714-4.082,11.988-2.63
					c-2.237-2.996-2.453-8.415,0.746-10.351c3.199-1.936,7.93-0.525,9.546,2.847c-0.531-2.547-0.291-5.893,1.919-7.267
					c2.209-1.374,5.27-1.21,7.32,0.393c2.05,1.602,2.948,4.533,2.147,7.009c1.814-1.422,4.93-1.372,6.592,0.226
					c1.661,1.598,1.917,4.446,0.567,6.315C492.606,117.55,493.951,118.648,494.668,120.667z"/>
				<path style="fill:#FEF7CB;" d="M71.335,122H29c2.891-2.742,7.079-4.707,10.989-3.945c-0.854-3.472,1.006-7.785,4.431-8.813
					c3.424-1.028,7.475,1.023,8.674,4.392c0.881-1.957,3.086-3.081,5.128-2.419c2.042,0.663,3.39,2.984,2.953,5.086
					C65.817,114.897,69.245,117.623,71.335,122z"/>
				<path style="fill:#688211;" d="M466.56,480.972c-8.89-3.817-15.995-11.588-19.003-20.784
					c-3.008-9.196-1.869-19.663,3.046-27.996C465.555,443.095,470.781,462.955,466.56,480.972z"/>
				<path style="fill:#ABC944;" d="M466.101,479.85c-6.972,2.733-15.112,2.318-21.77-1.11c-6.658-3.428-11.724-9.812-13.549-17.075
					C444.946,459.536,458.626,467.632,466.101,479.85z"/>
				<path style="fill:#355E2C;" d="M509.105,426.193c-7.565-0.346-15.176,3.696-19.126,10.158
					c-3.95,6.462-3.931,14.859-0.174,21.434c-1.679-2.764-5.044-4.401-8.254-4.018c-3.211,0.384-6.095,2.768-7.076,5.849
					c-0.849,2.668-0.421,5.904,1.265,8.133c-1.963-1.846-4.9-2.647-7.511-1.937c-3.03,0.824-5.418,3.621-5.758,6.742
					c-0.271,2.488,0.605,5.024,2.374,6.694c-4.691-2.965-11.216-2.795-15.862,0.335c-5.167,3.481-7.826,10.133-6.986,16.306
					c0.84,6.173,4.933,11.696,10.349,14.775h74.879v-72.611C523.88,431.259,516.67,426.539,509.105,426.193z"/>
				<path style="fill:#3D6D33;" d="M515.703,433.835c-7.565-0.346-15.176,3.696-19.126,10.158
					c-3.95,6.462-3.932,14.859-0.174,21.434c-1.679-2.764-5.044-4.401-8.254-4.018c-3.211,0.384-6.095,2.768-7.076,5.849
					c-0.849,2.668-0.421,5.904,1.265,8.133c-1.963-1.846-4.9-2.647-7.511-1.937c-3.03,0.824-5.418,3.621-5.758,6.742
					c-0.271,2.488,0.605,5.024,2.374,6.694c-4.691-2.965-11.216-2.795-15.862,0.335c-5.167,3.481-7.826,10.133-6.986,16.305
					c0.84,6.173,4.933,11.696,10.349,14.775h74.879v-72.611C530.479,438.9,523.269,434.181,515.703,433.835z"/>
			</g>
			<g>
				<g>
					<polygon style="fill:#103754;" points="437.67,139.67 102.33,139.67 121.33,105.67 418.67,105.67 					"/>
					<path style="fill:#144468;" d="M423.63,139.67H116.37l10.03-19.207c2.877-5.509,8.577-8.963,14.792-8.963h257.617
						c6.215,0,11.915,3.454,14.792,8.963L423.63,139.67z"/>
					<rect x="110.833" y="139.667" style="fill:#E28C4F;" width="318.333" height="27.333"/>
					<rect x="110.833" y="167" style="fill:#E7A166;" width="318.333" height="39"/>
					<rect x="110.833" y="206" style="fill:#E28C4F;" width="318.333" height="58"/>
				</g>
				<g>
					<g>
						<g>
							<path style="fill:#5E3605;" d="M121.25,145.417L121.25,145.417c-1.45,0-2.625,1.175-2.625,2.625v15.875h5.25v-15.875
								C123.875,146.592,122.7,145.417,121.25,145.417z"/>
							<path style="fill:#5E3605;" d="M131.75,145.417L131.75,145.417c-1.45,0-2.625,1.175-2.625,2.625v15.875h5.25v-15.875
								C134.375,146.592,133.2,145.417,131.75,145.417z"/>
							<path style="fill:#5E3605;" d="M142.25,145.417L142.25,145.417c-1.45,0-2.625,1.175-2.625,2.625v15.875h5.25v-15.875
								C144.875,146.592,143.7,145.417,142.25,145.417z"/>
							<path style="fill:#5E3605;" d="M152.75,145.417L152.75,145.417c-1.45,0-2.625,1.175-2.625,2.625v15.875h5.25v-15.875
								C155.375,146.592,154.2,145.417,152.75,145.417z"/>
						</g>
						<g>
							<path style="fill:#5E3605;" d="M387.25,145.417L387.25,145.417c-1.45,0-2.625,1.175-2.625,2.625v15.875h5.25v-15.875
								C389.875,146.592,388.7,145.417,387.25,145.417z"/>
							<path style="fill:#5E3605;" d="M397.75,145.417L397.75,145.417c-1.45,0-2.625,1.175-2.625,2.625v15.875h5.25v-15.875
								C400.375,146.592,399.2,145.417,397.75,145.417z"/>
							<path style="fill:#5E3605;" d="M408.25,145.417L408.25,145.417c-1.45,0-2.625,1.175-2.625,2.625v15.875h5.25v-15.875
								C410.875,146.592,409.7,145.417,408.25,145.417z"/>
							<path style="fill:#5E3605;" d="M418.75,145.417L418.75,145.417c-1.45,0-2.625,1.175-2.625,2.625v15.875h5.25v-15.875
								C421.375,146.592,420.2,145.417,418.75,145.417z"/>
						</g>
					</g>
					<g>
						<g>
							<path style="fill:#5E3605;" d="M208.188,145.417L208.188,145.417c-1.45,0-2.625,1.175-2.625,2.625v8.375h5.25v-8.375
								C210.813,146.592,209.637,145.417,208.188,145.417z"/>
							<path style="fill:#5E3605;" d="M218.688,145.417L218.688,145.417c-1.45,0-2.625,1.175-2.625,2.625v8.375h5.25v-8.375
								C221.313,146.592,220.137,145.417,218.688,145.417z"/>
							<path style="fill:#5E3605;" d="M229.188,145.417L229.188,145.417c-1.45,0-2.625,1.175-2.625,2.625v8.375h5.25v-8.375
								C231.813,146.592,230.637,145.417,229.188,145.417z"/>
							<path style="fill:#5E3605;" d="M239.688,145.417L239.688,145.417c-1.45,0-2.625,1.175-2.625,2.625v8.375h5.25v-8.375
								C242.313,146.592,241.137,145.417,239.688,145.417z"/>
						</g>
						<g>
							<path style="fill:#5E3605;" d="M300.313,145.417L300.313,145.417c-1.45,0-2.625,1.175-2.625,2.625v8.375h5.25v-8.375
								C302.938,146.592,301.762,145.417,300.313,145.417z"/>
							<path style="fill:#5E3605;" d="M310.813,145.417L310.813,145.417c-1.45,0-2.625,1.175-2.625,2.625v8.375h5.25v-8.375
								C313.438,146.592,312.262,145.417,310.813,145.417z"/>
							<path style="fill:#5E3605;" d="M321.313,145.417L321.313,145.417c-1.45,0-2.625,1.175-2.625,2.625v8.375h5.25v-8.375
								C323.938,146.592,322.762,145.417,321.313,145.417z"/>
							<path style="fill:#5E3605;" d="M331.813,145.417L331.813,145.417c-1.45,0-2.625,1.175-2.625,2.625v8.375h5.25v-8.375
								C334.438,146.592,333.262,145.417,331.813,145.417z"/>
						</g>
					</g>
				</g>
				<g>
					<g>
						<g>
							<path style="fill:#5E3605;" d="M126.5,173.667L126.5,173.667c-4.349,0-7.875,3.526-7.875,7.875v19.625h15.75v-19.625
								C134.375,177.192,130.849,173.667,126.5,173.667z"/>
							<path style="fill:#5E3605;" d="M147.5,173.667L147.5,173.667c-4.349,0-7.875,3.526-7.875,7.875v19.625h15.75v-19.625
								C155.375,177.192,151.849,173.667,147.5,173.667z"/>
						</g>
						<g>
							<path style="fill:#5E3605;" d="M392.5,173.667L392.5,173.667c-4.349,0-7.875,3.526-7.875,7.875v19.625h15.75v-19.625
								C400.375,177.192,396.849,173.667,392.5,173.667z"/>
							<path style="fill:#5E3605;" d="M413.5,173.667L413.5,173.667c-4.349,0-7.875,3.526-7.875,7.875v19.625h15.75v-19.625
								C421.375,177.192,417.849,173.667,413.5,173.667z"/>
						</g>
					</g>
					<g>
						<path style="fill:#5E3605;" d="M223.135,173.667L223.135,173.667c-4.349,0-7.875,3.526-7.875,7.875v19.625h15.75v-19.625
							C231.01,177.192,227.485,173.667,223.135,173.667z"/>
						<path style="fill:#5E3605;" d="M316.865,173.667L316.865,173.667c-4.349,0-7.875,3.526-7.875,7.875v19.625h15.75v-19.625
							C324.74,177.192,321.214,173.667,316.865,173.667z"/>
					</g>
				</g>
				<g>
					<g>
						<g>
							<g>
								<polygon style="fill:#144468;" points="202.896,100.667 157.896,100.667 167.229,58.667 193.563,58.667 								"/>
								<g>
									<path style="fill:#0B263B;" d="M180.396,84.104L180.396,84.104c-2.002,0-3.625,1.623-3.625,3.625v4.438h7.25v-4.438
										C184.021,85.727,182.398,84.104,180.396,84.104z"/>
									<path style="fill:#0B263B;" d="M180.396,68.104L180.396,68.104c-2.002,0-3.625,1.623-3.625,3.625v4.438h7.25v-4.438
										C184.021,69.727,182.398,68.104,180.396,68.104z"/>
								</g>
							</g>
							<rect x="158.831" y="105.67" style="fill:#E4955A;" width="43.13" height="158.33"/>
							<rect x="161.938" y="100.667" style="fill:#A8554A;" width="36.917" height="163.333"/>
							<rect x="167.875" y="100.667" style="fill:#B96155;" width="25.042" height="163.333"/>
							<g>
								<path style="fill:#693730;" d="M169.896,116.417L169.896,116.417c-1.45,0-2.625,1.175-2.625,2.625v43.625h5.25v-43.625
									C172.521,117.592,171.346,116.417,169.896,116.417z"/>
								<path style="fill:#693730;" d="M180.396,116.417L180.396,116.417c-1.45,0-2.625,1.175-2.625,2.625v43.625h5.25v-43.625
									C183.021,117.592,181.846,116.417,180.396,116.417z"/>
								<path style="fill:#693730;" d="M190.896,116.417L190.896,116.417c-1.45,0-2.625,1.175-2.625,2.625v43.625h5.25v-43.625
									C193.521,117.592,192.346,116.417,190.896,116.417z"/>
							</g>
						</g>
					</g>
					<g>
						<g>
							<g>
								<polygon style="fill:#144468;" points="382.104,100.667 337.104,100.667 346.438,58.667 372.771,58.667 								"/>
								<g>
									<path style="fill:#0B263B;" d="M359.604,84.104L359.604,84.104c-2.002,0-3.625,1.623-3.625,3.625v4.438h7.25v-4.438
										C363.229,85.727,361.606,84.104,359.604,84.104z"/>
									<path style="fill:#0B263B;" d="M359.604,68.104L359.604,68.104c-2.002,0-3.625,1.623-3.625,3.625v4.438h7.25v-4.438
										C363.229,69.727,361.606,68.104,359.604,68.104z"/>
								</g>
							</g>
							<rect x="338.04" y="105.67" style="fill:#E4955A;" width="43.13" height="158.33"/>
							<rect x="341.146" y="100.667" style="fill:#A8554A;" width="36.917" height="163.333"/>
							<rect x="347.083" y="100.667" style="fill:#B96155;" width="25.042" height="163.333"/>
							<g>
								<path style="fill:#693730;" d="M349.104,116.417L349.104,116.417c-1.45,0-2.625,1.175-2.625,2.625v43.625h5.25v-43.625
									C351.729,117.592,350.554,116.417,349.104,116.417z"/>
								<path style="fill:#693730;" d="M359.604,116.417L359.604,116.417c-1.45,0-2.625,1.175-2.625,2.625v43.625h5.25v-43.625
									C362.229,117.592,361.054,116.417,359.604,116.417z"/>
								<path style="fill:#693730;" d="M370.104,116.417L370.104,116.417c-1.45,0-2.625,1.175-2.625,2.625v43.625h5.25v-43.625
									C372.729,117.592,371.554,116.417,370.104,116.417z"/>
							</g>
						</g>
					</g>
				</g>
				<path style="fill:#B96155;" d="M270,214.667L270,214.667c-8.56,0-15.5,6.939-15.5,15.5V264h31v-33.833
					C285.5,221.606,278.56,214.667,270,214.667z"/>
				<g>
					<rect x="118.291" y="213.667" style="fill:#144468;" width="16.417" height="34.75"/>
					<rect x="120.291" y="232.042" style="fill:#47CDB2;" width="5.208" height="14.375"/>
					<rect x="127.5" y="232.042" style="fill:#47CDB2;" width="5.208" height="14.375"/>
					<rect x="127.5" y="215.667" style="fill:#47CDB2;" width="5.208" height="14.375"/>
					<rect x="120.291" y="215.667" style="fill:#47CDB2;" width="5.208" height="14.375"/>
					<rect x="139.292" y="213.667" style="fill:#144468;" width="16.417" height="34.75"/>
					<rect x="141.292" y="232.042" style="fill:#47CDB2;" width="5.208" height="14.375"/>
					<rect x="148.5" y="232.042" style="fill:#47CDB2;" width="5.208" height="14.375"/>
					<rect x="148.5" y="215.667" style="fill:#47CDB2;" width="5.208" height="14.375"/>
					<rect x="141.292" y="215.667" style="fill:#47CDB2;" width="5.208" height="14.375"/>
					<rect x="384.292" y="213.667" style="fill:#144468;" width="16.417" height="34.75"/>
					<rect x="386.292" y="232.042" style="fill:#47CDB2;" width="5.209" height="14.375"/>
					<rect x="393.5" y="232.042" style="fill:#47CDB2;" width="5.208" height="14.375"/>
					<rect x="393.5" y="215.667" style="fill:#47CDB2;" width="5.208" height="14.375"/>
					<rect x="386.292" y="215.667" style="fill:#47CDB2;" width="5.209" height="14.375"/>
					<rect x="405.292" y="213.667" style="fill:#144468;" width="16.417" height="34.75"/>
					<rect x="414.5" y="215.667" style="fill:#47CDB2;" width="5.208" height="14.375"/>
					<rect x="407.292" y="215.667" style="fill:#47CDB2;" width="5.209" height="14.375"/>
					<rect x="407.292" y="232.042" style="fill:#47CDB2;" width="5.209" height="14.375"/>
					<rect x="414.5" y="232.042" style="fill:#47CDB2;" width="5.208" height="14.375"/>
					<rect x="172.188" y="176.542" style="fill:#144468;" width="16.417" height="34.75"/>
					<rect x="174.188" y="194.917" style="fill:#47CDB2;" width="5.208" height="14.375"/>
					<rect x="181.396" y="194.917" style="fill:#47CDB2;" width="5.208" height="14.375"/>
					<rect x="181.396" y="178.542" style="fill:#47CDB2;" width="5.208" height="14.375"/>
					<rect x="174.188" y="178.542" style="fill:#47CDB2;" width="5.208" height="14.375"/>
					<rect x="351.396" y="176.542" style="fill:#144468;" width="16.416" height="34.75"/>
					<rect x="353.396" y="194.917" style="fill:#47CDB2;" width="5.208" height="14.375"/>
					<rect x="360.604" y="194.917" style="fill:#47CDB2;" width="5.208" height="14.375"/>
					<rect x="360.604" y="178.542" style="fill:#47CDB2;" width="5.208" height="14.375"/>
					<rect x="353.396" y="178.542" style="fill:#47CDB2;" width="5.208" height="14.375"/>
				</g>
			</g>
			<g>
				<path style="fill:#75331B;" d="M63.462,462.868l-4.353,9.516l10.421,14.788c1.835,2.604,1.633,6.129-0.486,8.507l0,0
					c-2.442,2.74-6.61,3.069-9.452,0.746l-27.897-22.806c-2.561-2.093-2.737-5.947-0.378-8.265l14.473-14.221L63.462,462.868z"/>
				<path style="fill:#75331B;" d="M150.856,467.982l3.083,10l17.619,4.104c3.102,0.723,5.298,3.488,5.298,6.674l0,0
					c0,3.671-2.892,6.689-6.559,6.846l-36,1.54c-3.304,0.141-6-2.618-5.781-5.918l1.341-20.246L150.856,467.982z"/>
				<path style="fill:#10252E;" d="M127.693,383.877c-3.878-6.863-8.015-13.605-12.695-19.955
					c-7.884-10.698-18.122-18.312-27.98-26.823l-3.719,49.831c-0.238,3.195-1.32,6.269-3.134,8.909l-38.189,55.576
					c8.745,15.499,21.958,15.556,21.958,15.556l66.152-79.141C129.262,386.53,128.452,385.221,127.693,383.877z"/>
				<g>
					<path style="fill:#15303B;" d="M153.94,470.73c0,0-9.9,8.75-26.74,3l-8.48-66.9c-0.4-3.17-1.64-6.19-3.59-8.73l-45.27-59.12
						c0,0-6.75-7-5.5-16.5l22.07-0.91l58.41-2.41l4.27-0.18l0.29,8.96l0.18,5.78L153.94,470.73z"/>
					<path style="fill:#10252E;" d="M138.14,339.27c0.63,1.76-0.06,3.79-1.73,4.78c-0.64,0.37-1.33,0.56-2.03,0.56
						c-0.23,0-0.46-0.02-0.69-0.06c-0.46,1.51-1.53,2.81-2.97,3.53l-5.5,2.75c-1.14,0.57-2.42,0.87-3.69,0.87
						c-1.93,0-3.76-0.69-5.22-1.87l-6.31,3.05l-0.77-0.25c-0.8-0.27-1.38-0.46-22.76-31l-0.04-0.06l58.41-2.41l4.56,8.78l0.18,5.78
						L138.14,339.27z"/>
					<g>
						<path style="fill:#331107;" d="M176.846,488.912c-0.03,1.78-0.74,3.39-1.89,4.59c-1.19,1.23-2.83,2.02-4.66,2.1l-36,1.54
							c-3.3,0.15-6-2.61-5.78-5.91v-0.04c1.1,0.81,2.53,1.28,4.07,1.22l39.35-1.54C173.856,490.792,175.576,490.072,176.846,488.912
							z"/>
					</g>
				</g>
				<g>
					<g>
						<path style="fill:#331107;" d="M68.935,495.786c-1.207,1.309-2.808,2.038-4.465,2.168c-1.707,0.126-3.457-0.375-4.876-1.533
							l-27.897-22.806c-2.563-2.084-2.742-5.941-0.382-8.258l0.027-0.03c0.282,1.337,1.037,2.639,2.226,3.619l30.398,25.035
							C65.452,495.199,67.215,495.806,68.935,495.786z"/>
					</g>
				</g>
				<path style="fill:#454279;" d="M39.11,270.86l-0.27,2.88l-0.2,2.05l-2.24,23.28l-9.51,11.3c-0.66-0.22-1.29-0.44-1.9-0.67
					c-1.93-0.71-3.66-1.45-5.19-2.21c-7.16-3.53-9.84-12.4-6.03-19.42l6.4-11.78l1.18-2.16l2.12-3.9l10.33,0.42L39.11,270.86z"/>
				<polygon style="fill:#2F2D52;" points="39.11,270.86 38.84,273.74 38.18,278.02 37.33,277.93 31.46,277.38 20.17,276.29 
					21.35,274.13 23.47,270.23 33.8,270.65 				"/>
				<path style="fill:#454279;" d="M43.4,250.34l-3.9,25.53l-0.86-0.08l-5.87-0.56l-11.42-1.1l-4.6-0.44
					c1.99-14.38,14.19-20.06,21.37-22.18C41.23,250.59,43.4,250.34,43.4,250.34z"/>
				<path style="fill:#7D2C2B;" d="M129.893,184.516c4.019,5.559,3.283,13.156,1.929,19.881c-1.354,6.725-3.125,13.859-0.687,20.271
					c2.492,6.554,8.835,10.827,12.431,16.846c3.464,5.798,4.127,13.188,1.75,19.51s-8.236,16.745-14.172,13.522
					c-1.038-0.564-23.476-49.721-23.476-49.721l17.437-40.309H129.893z"/>
				<g>
					<path style="fill:#5C2020;" d="M136.106,238.946c-4.343-5.848-10.454-10.818-10.737-18.645
						c-0.27-7.482,4.386-14.277,2.438-21.822c-0.076-0.294-0.516-0.169-0.452,0.125c1.536,7.109-2.446,13.905-2.902,20.916
						c-0.384,5.904,3.068,10.722,6.649,15.04c4.884,5.888,9.05,11.324,9.162,19.346c0.054,3.877-1.125,7.645-3.027,10.987
						c-1.954,3.432-4.823,5.416-7.676,7.974c-0.282,0.253,0.014,0.809,0.384,0.66c5.634-2.276,9.445-8.945,10.839-14.557
						C142.547,251.876,140.358,244.672,136.106,238.946z"/>
					<path style="fill:#5C2020;" d="M130.218,240.657c-2.01-5.124-6.033-9.16-8.387-14.115c-2.847-5.992-2.14-12.661,0.09-18.691
						c0.098-0.266-0.316-0.429-0.45-0.19c-2.352,4.203-2.818,9.078-2.142,13.787c0.762,5.31,3.892,9.632,6.774,13.988
						c3.1,4.686,4.89,9.509,4.637,15.183c-0.124,2.769-0.877,5.504-1.973,8.037c-1.074,2.481-2.857,4.321-4.319,6.532
						c-0.241,0.364,0.247,0.879,0.615,0.615c3.467-2.492,5.372-7.472,6.276-11.482C132.361,249.781,131.91,244.972,130.218,240.657z
						"/>
				</g>
				<path style="fill:#E4212F;" d="M153.94,319.48c0,0-59.5,23-94.83,4.17c0,0-3.89-64.83,18.56-91.89
					c6.49-7.83,15.18-12.49,26.79-11.54c2.16,0.29,3.88,0.65,5.21,1.01c2.85,0.77,3.94,1.5,3.94,1.5s15.42,9.36,22.52,17.07
					c2.64,2.88,3.74,6.88,2.83,10.68c-0.1,0.43-0.22,0.86-0.35,1.27c0,0,0,0.01-0.01,0.02c-1.48,4.89-4.33,8.38-4.33,8.38
					S136.77,295.65,153.94,319.48z"/>
				<path style="fill:#BA1B26;" d="M153.94,319.48c0,0-59.5,23-94.83,4.17c42.49,14.96,88.39-8.17,88.39-8.17
					C133.14,294.12,132.71,264,132.71,264c-5.01,0-8.83-4.13-8.83-4.13c8.92,1.07,14.4-7.59,14.72-8.1
					c-1.48,4.89-4.33,8.38-4.33,8.38S136.77,295.65,153.94,319.48z"/>
				<path style="fill:#BA1B26;" d="M116.63,276.17c-7.02,18.41-22.19,31.99-42.69,38.23l-2.31,0.7l-1.19-10.78l1.57-0.5
					c0.25-0.07,24.73-7.95,34.75-29.1c6.08-12.85,5.68-28.01-1.18-45.07c-1.63-3.74-4.41-5.59-8.47-5.59c-6,0-13.44,3.83-19.44,7.7
					c6.49-7.83,15.18-12.49,26.79-11.54c2.16,0.29,3.88,0.65,5.21,1.01c1.43,1.44,2.76,3.14,3.98,5.07
					C121.87,239.84,123.04,259.4,116.63,276.17z"/>
				<path style="fill:#ECE9E4;" d="M149.11,331.73l-11.91,5.77l-22.36,10.82l-4.98,2.41c-0.75-0.25-21.75-30.25-21.75-30.25
					l7.78-3.91l20.87-10.5l15.09-7.59L149.11,331.73z"/>
				<polygon style="fill:#AFE0E5;" points="92.856,328.982 129.606,310.232 143.356,333.851 108.658,350.732 				"/>
				<path style="fill:#F8C5B4;" d="M119.601,228.354c-0.89,1.66-10.5-0.37-15.37-7l2.09-10.54l1.53-7.71l9.5,3.5l-1.73,7.44
					l-2.02,8.69C113.601,222.734,120.481,226.734,119.601,228.354z"/>
				<path style="fill:#F59F8E;" d="M117.351,206.604l-1.73,7.44c-3.29-0.11-6.53-1.25-9.3-3.23l1.53-7.71L117.351,206.604z"/>
				<path style="fill:#F8C5B4;" d="M124.761,178.57c0,0,6.879,5.08,5.343,18.773c-1.536,13.693-7.203,18.993-21.446,11.949
					l-0.989-17.017l9.682-13.733L124.761,178.57z"/>
				<path style="fill:#7D2C2B;" d="M132.9,195.47c0,0-3.4-10.96-8.14-16.9c0,0-0.9,6.66-6.65,11.04c-5.75,4.37-9,7.12-8.5,16.37
					s3.22,16.5-11.14,20.13c-6.34,1.7-13.03,6.79-18.52,11.93c-0.52,0.48-1.04,0.97-1.54,1.46c-6.13,5.98-10.43,11.61-10.43,11.61
					s-11-23.38,4-40.5c12.78-14.6,15.03-16.49,18.36-22.45c1.01-1.81,1.84-3.72,2.63-5.64c2.38-5.79,7.08-9.96,12.65-11.63
					c0.14-0.05,0.29-0.09,0.43-0.13c2.75-0.75,5.7-0.91,8.69-0.36c0.24,0.04,0.48,0.09,0.72,0.15c2.17,0.48,4.35,1.34,6.48,2.62
					c0.23,0.13,0.46,0.27,0.69,0.43c1.54,0.98,3.04,2.19,4.48,3.63C127.11,177.23,133.37,184.09,132.9,195.47z"/>
				<g>
					<path style="fill:#5C2020;" d="M115.82,187.14c-2.85,2.38-6.12,4.49-8.51,7.38c-3.6,4.35-3.41,9.39-3.55,14.74
						c-0.09,3.79-0.51,8.23-3.33,11.07c-2.76,2.79-6.44,3.58-9.97,4.95c-5.84,2.28-9.48,7.15-10.51,12.76
						c-0.51,2.76-0.39,5.7,0.4,8.6c0.12,0.43-0.54,0.74-0.73,0.31c-1.05-2.32-1.42-4.89-1.21-7.45c0.34-4.41,2.38-8.76,5.59-11.69
						c2.83-2.58,6.11-3.66,9.65-4.91c2.5-0.89,5.4-2.02,6.88-4.39c1.32-2.1,1.95-4.48,2.13-6.94c0.32-4.63-0.26-9.29,1.43-13.72
						c1.18-3.1,3.81-5.59,6.36-7.6c2.92-2.32,6.2-4.44,8.55-7.39c2.34-2.94,3.24-6.29,2.94-9.69c0.23,0.13,0.46,0.27,0.69,0.43
						C122.88,178.71,119.93,183.71,115.82,187.14z"/>
					<path style="fill:#5C2020;" d="M108.17,183.34c-3.25,2.66-7.1,5.61-7.91,10c-0.71,3.87,0.25,8.16-1.13,11.9
						c-2.96,8.05-12.45,7.89-18.3,12.74c-2.97,2.46-5.38,5.66-6.64,9.33c-1.27,3.69-1.21,7.07-1.03,10.89
						c0.03,0.59-0.83,0.66-1,0.13c-1.85-5.82,0.64-13.19,4.33-17.78c2.18-2.71,4.86-4.9,8.07-6.29c3.59-1.56,7.86-2.55,10.79-5.29
						c3.74-3.49,3.24-7.93,3.53-12.59c0.22-3.37,1.08-6.42,3.39-8.98c4.13-4.55,14.42-9.87,12.47-17c0.24,0.04,0.48,0.09,0.72,0.15
						C116.48,175.39,111.72,180.43,108.17,183.34z"/>
					<path style="fill:#5C2020;" d="M101.12,180.69c-2.86,2.34-5.6,4.64-6.37,8.46c-0.53,2.63-0.59,5.48-1.69,7.96
						c-5.18,11.66-24.3,12.72-23.57,27.52c0.02,0.52-0.76,0.61-0.89,0.12c-1.43-5.04,2.05-10.28,5.85-13.32
						c4.72-3.76,10.77-6.03,14.82-10.59c2.31-2.6,3.38-5.4,3.9-8.8c0.43-2.75,0.9-5.31,2.53-7.62c2.83-4.02,11.67-7.69,9.92-13.53
						c0.14-0.05,0.29-0.09,0.43-0.13C107.24,174.52,104,178.32,101.12,180.69z"/>
				</g>
				<path style="fill:#454279;" d="M65.606,231.482c0,0,30.202-29.725,46.351-4.113c14.649,24.113,7.399,71.113-38.601,85.113
					l-0.75-6.75c0,0,58.412-18.211,34.831-76.826c-8.581-19.674-41.831,9.326-41.831,9.326V231.482z"/>
				<path style="fill:#AFE0E5;" d="M137.2,337.5l-22.36,10.82c-0.15-0.21-0.3-0.44-0.44-0.67l-18.51-31.08l20.87-10.5l9.3,21.06
					c0.66,1.51,1.92,2.71,3.45,3.3l1.29,0.5c2.16,0.85,3.98,2.41,5.16,4.41L137.2,337.5z"/>
				<path style="fill:#F8C5B4;" d="M135.39,342.33c-0.31,0.18-0.66,0.28-1.01,0.28c-0.41,0-0.82-0.13-1.16-0.37l-1.78-1.26
					c0.34,0.6,0.5,1.25,0.5,1.89c0,1.39-0.77,2.75-2.11,3.42l-5.5,2.75c-2.94,1.47-6.53,0.42-8.21-2.41l-23.21-38.98
					c-3.83-6.43-6.3-13.58-7.26-21.01l-3.78-29.26l-0.93-7.23l22.33-6l7.67,8.47l-0.05,1.43l-1.12,35.45
					c-0.11,3.5,0.57,6.98,1.98,10.18l12.48,28.26c0.88,2,2.52,3.57,4.56,4.36l1.29,0.5c1.74,0.68,3.2,1.93,4.15,3.55l1.87,3.24
					C136.66,340.55,136.34,341.77,135.39,342.33z"/>
				<path style="fill:#F59F8E;" d="M110.94,252.62l-0.05,1.43c-0.03-0.01-0.06-0.02-0.09-0.02c-9.75-1.56-19.38-0.23-28.93,3.35
					l-0.93-7.23l22.33-6L110.94,252.62z"/>
				<path style="fill:#BA1B26;" d="M111.96,252.82c-0.78-0.16-1.56-0.31-2.34-0.43c-10.12-1.62-20.11-0.13-30.01,3.76
					c-2.33-13.84,0.56-25.06,7.19-30.45c1.14-0.92,2.4-1.68,3.75-2.24c3.03-1.26,6.48-1.35,9.58-0.28
					C114.62,228.19,111.96,252.82,111.96,252.82z"/>
				<path style="fill:#E4212F;" d="M109.62,252.39c-10.12-1.62-20.11-0.13-30.01,3.76c-2.33-13.84,0.56-25.06,7.19-30.45
					c0.41-0.22,0.83-0.42,1.27-0.6c3.03-1.26,6.48-1.35,9.58-0.28C109.58,228.95,109.88,246.37,109.62,252.39z"/>
				<path style="fill:#2F2D52;" d="M43.4,250.34l-3.9,25.53l-0.86-0.08l-2.24,23.28l-9.51,11.3c-0.66-0.22-1.29-0.44-1.9-0.67
					l7.78-34.47l1.03-4.58l4.32-19.14C41.23,250.59,43.4,250.34,43.4,250.34z"/>
				<path style="fill:#2F2D52;" d="M79.99,312.15c0.02,2.73-2.09,5-4.82,5.18c-9.76,0.63-32.21,1-48.28-6.96l1.87-8.28l14.41-63.84
					l3.43-15.21l22.77-3.33l9.94-1.46l0.15,21.34L79.99,312.15z"/>
				<path style="fill:#454279;" d="M69.95,299.59c0.02,2.73-2.09,5-4.82,5.18c-7.51,0.48-22.52,0.82-36.37-2.68l14.41-63.84
					l3.43-15.21l22.77-3.33l0.05,7.32L69.95,299.59z"/>
				<path style="fill:#2F2D52;" d="M79.87,217.8l-0.38,17.31c-0.02,1.17-1,2.09-2.16,2.05l-38.22-1.42h-0.07
					c-4.16-0.15-6.24-5.02-3.55-8.19c11.61-13.69,27.56-15.87,37.14-16.61c3.35-0.25,6.27,1.98,7.03,5.07
					C79.81,216.58,79.88,217.18,79.87,217.8z"/>
				<polygon style="fill:#2F2D52;" points="79.46,239.59 79.36,239.59 43.17,238.25 46.6,223.04 79.31,218.25 				"/>
				<path style="fill:#454279;" d="M79.87,217.8l-0.38,17.31c-0.02,1.17-1,2.09-2.16,2.05l-38.22-1.42
					c-0.03-1.14,0.35-2.32,1.2-3.33c11.61-13.68,27.57-15.86,37.15-16.6c0.76-0.06,1.51,0.01,2.2,0.2
					C79.81,216.58,79.88,217.18,79.87,217.8z"/>
				<g>
					
						<linearGradient id="SVGID_00000128471404971268755580000010870407580659627951_" gradientUnits="userSpaceOnUse" x1="144.902" y1="195.0151" x2="143.1017" y2="203.502" gradientTransform="matrix(-1 0 0 1 269.975 0)">
						<stop  offset="0" style="stop-color:#F8C5B4"/>
						<stop  offset="0.9946" style="stop-color:#F59982"/>
					</linearGradient>
					<path style="fill:url(#SVGID_00000128471404971268755580000010870407580659627951_);" d="M128.356,202.526
						c0.011,0.438-0.456,0.725-0.877,0.842c-0.973,0.269-2.202,0.028-2.649-0.878c-0.257-0.521-0.199-1.137-0.109-1.71
						c0.341-2.177,1.068-4.293,2.137-6.219c-0.577,2.508,0.047,5.187,1.301,7.434C128.252,202.161,128.351,202.335,128.356,202.526z
						"/>
					<path style="fill:#F8F8F8;" d="M126.312,206.442c0,0-5.564,0.189-8.02-3.337c0,0,0.63,6.423,2.078,6.675
						C121.818,210.031,126.312,206.442,126.312,206.442z"/>
					<path style="fill:#7D2C2B;" d="M124.124,187.499v1.591c0,0-3.361-0.404-5.559,0.783l-0.24-0.783
						C118.325,189.089,119.764,187.45,124.124,187.499z"/>
					<path style="fill:#7D2C2B;" d="M128.086,189.903l0.117,1.586c0,0,2.243-0.57,3.816,0.505l0.105-0.793
						C132.123,191.201,131.03,189.638,128.086,189.903z"/>
				</g>
				<g>
					<path style="fill:#451818;" d="M122.895,196.141c-0.044,1.209-0.495,2.174-1.007,2.156c-0.512-0.019-0.892-1.014-0.848-2.223
						c0.044-1.209,0.495-2.174,1.007-2.156C122.56,193.937,122.939,194.932,122.895,196.141z"/>
					<path style="fill:#451818;" d="M120.31,193.59c0,0,0.092,0.327,0.914,0.327c0.823,0,1.103-0.174,1.446,0.643
						c0,0-0.301-0.246-0.703-0.149C121.566,194.508,120.6,194.677,120.31,193.59z"/>
				</g>
				<g>
					<path style="fill:#451818;" d="M128.089,196.626c0.044,1.209,0.495,2.174,1.007,2.156c0.512-0.019,0.892-1.014,0.848-2.223
						c-0.044-1.209-0.495-2.174-1.007-2.156C128.425,194.421,128.045,195.417,128.089,196.626z"/>
					<path style="fill:#451818;" d="M130.674,194.075c0,0-0.092,0.327-0.914,0.327c-0.823,0-1.103-0.174-1.446,0.643
						c0,0,0.301-0.246,0.703-0.149C129.419,194.993,130.384,195.162,130.674,194.075z"/>
				</g>
			</g>
			<path style="fill:#688211;" d="M42.109,487.424c4.73-9.338,12.491-17.109,21.823-21.85c9.332-4.741,20.184-6.429,30.515-4.744
				C81.519,476.532,62.442,486.92,42.109,487.424z"/>
			<path style="fill:#ABC944;" d="M46.317,485.843c-2.261-7.34-2.123-15.399,0.387-22.658c2.511-7.259,7.381-13.68,13.694-18.055
				C61.575,460.009,56.796,475.215,46.317,485.843z"/>
			<path style="fill:#355E2C;" d="M62.885,492.738c-1.032-4.033-3.507-7.888-7.285-9.636c-2.741-1.268-6.827-1.334-9.718,0.064
				c3.153-3.432,4.601-8.451,3.504-13.003c-1.368-5.676-6.588-10.205-12.4-10.76c-5.023-0.479-9.84,1.164-12.616,5.049
				c2.148-4.418,2.225-9.835,0.071-14.263c-2.491-5.121-7.86-8.718-13.544-9.073c-8.449-0.528-16.382,6.171-18.506,14.365v51.036
				H54.4c3.161,0.49,6.354-1.577,7.826-4.418C63.698,499.259,63.678,495.837,62.885,492.738z"/>
			<path style="fill:#3D6D33;" d="M54.235,498.905c-1.032-4.033-3.507-7.888-7.285-9.636c-2.741-1.268-6.827-1.334-9.718,0.064
				c3.153-3.432,4.601-8.451,3.504-13.003c-1.368-5.676-6.588-10.205-12.4-10.76c-5.023-0.479-9.84,1.164-12.616,5.049
				c2.148-4.418,2.225-9.834,0.071-14.263c-2.491-5.121-7.86-8.718-13.544-9.073c-8.449-0.528-16.382,6.171-18.506,14.366v51.036
				h62.01c3.162,0.49,6.354-1.577,7.826-4.418C55.048,505.427,55.028,502.005,54.235,498.905z"/>
		</g>
	</g>
</g>
<g id="DESIGNED_BY_FREEPIK">
	<g>
		<g id="XMLID_57_">
			<g id="XMLID_76_">
				<path id="XMLID_84_" style="fill:#102028;" d="M260.104,465.465c-0.432,0.443-0.803,0.931-1.108,1.453l-0.465-0.241
					c-0.067-0.298-0.349-0.503-0.659-0.466c-0.331,0.039-0.568,0.339-0.529,0.67s0.339,0.568,0.67,0.529
					c0.065-0.008,0.127-0.026,0.184-0.052l0.451,0.234c-0.251,0.554-0.433,1.139-0.539,1.744l0.746,0.132
					c0.23-1.306,0.85-2.507,1.792-3.473L260.104,465.465z"/>
				<path id="XMLID_83_" style="fill:#102028;" d="M265.592,463.163c-0.171,0-0.341,0.006-0.51,0.017l-0.074-0.626
					c0.188-0.149,0.296-0.389,0.266-0.645c-0.046-0.393-0.402-0.674-0.795-0.628s-0.674,0.402-0.628,0.795
					c0.03,0.254,0.189,0.461,0.405,0.564l0.073,0.624c-0.714,0.116-1.403,0.332-2.06,0.646l0.327,0.684
					c0.934-0.447,1.942-0.673,2.995-0.673c0.496,0,0.993,0.053,1.475,0.158l0.161-0.741
					C266.693,463.222,266.142,463.163,265.592,463.163z"/>
				<path id="XMLID_82_" style="fill:#102028;" d="M272.194,465.711c0.331-0.04,0.566-0.341,0.525-0.672
					c-0.04-0.331-0.341-0.566-0.672-0.526c-0.309,0.038-0.535,0.304-0.53,0.609l-0.416,0.363c-0.418-0.43-0.89-0.813-1.408-1.139
					l-0.404,0.641c1.134,0.715,2.021,1.726,2.563,2.925l0.69-0.313c-0.251-0.554-0.568-1.072-0.942-1.545l0.402-0.351
					C272.065,465.716,272.129,465.719,272.194,465.711z"/>
				<path id="XMLID_81_" style="fill:#102028;" d="M265.044,473.372c-0.386,0.023-0.775,0.035-1.157,0.035
					c-0.88,0-1.733-0.061-2.478-0.179c-0.39-0.062-0.846-0.155-1.27-0.292c1.046,1.861,3.069,3.125,5.388,3.125
					c2.855,0,5.262-1.916,5.95-4.504c-0.682,0.449-1.505,0.825-2.459,1.123C267.839,473.047,266.464,473.286,265.044,473.372z"/>
				<path id="XMLID_77_" style="fill:#102028;" d="M265.592,464.68c-3.352,0-6.08,2.666-6.08,5.943c0,0.426,0.046,0.849,0.137,1.261
					c0.674,0.483,2.706,0.89,5.348,0.731c2.879-0.173,5.297-0.957,6.672-2.159c-0.005-0.195-0.021-0.39-0.045-0.582
					C271.244,466.913,268.65,464.68,265.592,464.68z M263.432,471.194c-1.02,0-1.85-0.83-1.85-1.85c0-1.02,0.83-1.85,1.85-1.85
					c1.02,0,1.85,0.83,1.85,1.85C265.282,470.365,264.452,471.194,263.432,471.194z M268.17,470.286c-0.75,0-1.36-0.61-1.36-1.36
					s0.61-1.361,1.36-1.361c0.75,0,1.361,0.61,1.361,1.361S268.92,470.286,268.17,470.286z"/>
			</g>
			<path id="XMLID_74_" style="fill:#102028;" d="M281.595,466.547c-0.295-0.116-0.806-0.309-1.382-0.237
				c-0.551,0.069-0.844,0.341-0.844,1.007v0.866h2.228v1.717h-2.228v5.455h-1.932v-5.455h-1.34v-1.717h1.34v-0.888
				c0-1.68,0.895-2.783,2.568-2.783c0.642,0,1.157,0.122,1.59,0.308L281.595,466.547z"/>
			<path id="XMLID_72_" style="fill:#102028;" d="M286.298,469.879c-0.177-0.03-0.358-0.046-0.526-0.046
				c-0.896,0-1.51,0.548-1.51,1.614v3.908h-1.932v-7.172h1.873v0.785c0.451-0.673,1.14-0.977,2.021-0.977
				c0.414,0,0.848,0.128,1.094,0.337L286.298,469.879z"/>
			<path id="XMLID_69_" style="fill:#102028;" d="M293.965,471.757c0,0.222-0.015,0.489-0.037,0.651h-5.085
				c0.207,1.036,0.933,1.488,1.843,1.488c0.622,0,1.295-0.252,1.813-0.688l1.133,1.243c-0.814,0.748-1.85,1.088-3.057,1.088
				c-2.198,0-3.723-1.495-3.723-3.753c0-2.258,1.48-3.797,3.626-3.797C292.544,467.99,293.958,469.522,293.965,471.757z
				 M288.851,471.091h3.175c-0.178-0.918-0.733-1.436-1.562-1.436C289.554,469.655,289.021,470.203,288.851,471.091z"/>
			<path id="XMLID_66_" style="fill:#102028;" d="M301.618,471.757c0,0.222-0.015,0.489-0.037,0.651h-5.085
				c0.207,1.036,0.932,1.488,1.843,1.488c0.622,0,1.295-0.252,1.813-0.688l1.132,1.243c-0.814,0.748-1.85,1.088-3.057,1.088
				c-2.198,0-3.723-1.495-3.723-3.753c0-2.258,1.48-3.797,3.627-3.797C300.197,467.99,301.611,469.522,301.618,471.757z
				 M296.504,471.091h3.175c-0.178-0.918-0.733-1.436-1.562-1.436C297.207,469.655,296.674,470.203,296.504,471.091z"/>
			<path id="XMLID_63_" style="fill:#102028;" d="M309.964,471.764c0,2.154-1.495,3.775-3.471,3.775
				c-0.962,0-1.643-0.378-2.109-0.933v3.708h-1.924v-10.133h1.887v0.792c0.466-0.585,1.155-0.984,2.139-0.984
				C308.469,467.99,309.964,469.61,309.964,471.764z M304.287,471.764c0,1.132,0.747,1.976,1.843,1.976
				c1.14,0,1.85-0.881,1.85-1.976c0-1.095-0.711-1.976-1.85-1.976C305.035,469.788,304.287,470.632,304.287,471.764z"/>
			<path id="XMLID_60_" style="fill:#102028;" d="M313.068,465.836c0,0.696-0.54,1.229-1.236,1.229
				c-0.696,0-1.229-0.533-1.229-1.229c0-0.696,0.533-1.243,1.229-1.243C312.527,464.592,313.068,465.14,313.068,465.836z
				 M312.809,475.354h-1.932v-7.172h1.932V475.354z"/>
			<path id="XMLID_58_" style="fill:#102028;" d="M316.032,470.736l2.702-2.554h2.368l-3.479,3.375l3.501,3.797h-2.376l-2.716-2.901
				v2.901H314.1v-10.658h1.932V470.736z"/>
		</g>
		<g>
			<path style="fill:#102028;" d="M184.412,475.289v-1.055c-0.527,0.718-1.391,1.23-2.387,1.23c-1.846,0-3.149-1.406-3.149-3.706
				c0-2.256,1.289-3.721,3.149-3.721c0.952,0,1.816,0.469,2.387,1.245v-3.765h1.099v9.77H184.412z M184.412,473.37v-3.208
				c-0.395-0.615-1.245-1.143-2.124-1.143c-1.421,0-2.27,1.172-2.27,2.739c0,1.567,0.85,2.724,2.27,2.724
				C183.168,474.483,184.017,473.986,184.412,473.37z"/>
			<path style="fill:#102028;" d="M186.932,471.744c0-2.051,1.465-3.706,3.486-3.706c2.139,0,3.398,1.67,3.398,3.794v0.279h-5.727
				c0.088,1.333,1.025,2.446,2.549,2.446c0.806,0,1.626-0.322,2.182-0.894l0.527,0.718c-0.703,0.703-1.655,1.084-2.812,1.084
				C188.441,475.465,186.932,473.956,186.932,471.744z M190.404,468.947c-1.509,0-2.256,1.274-2.314,2.358h4.643
				C192.718,470.25,192.015,468.947,190.404,468.947z"/>
			<path style="fill:#102028;" d="M194.607,474.351l0.571-0.791c0.469,0.542,1.362,1.011,2.329,1.011c1.084,0,1.67-0.513,1.67-1.216
				c0-1.714-4.38-0.659-4.38-3.281c0-1.098,0.952-2.036,2.636-2.036c1.201,0,2.051,0.454,2.622,1.026l-0.513,0.762
				c-0.424-0.513-1.201-0.894-2.109-0.894c-0.967,0-1.567,0.483-1.567,1.113c0,1.552,4.38,0.527,4.38,3.281
				c0,1.187-0.952,2.138-2.783,2.138C196.306,475.465,195.325,475.113,194.607,474.351z"/>
			<path style="fill:#102028;" d="M201.477,466.471c0-0.41,0.337-0.747,0.732-0.747c0.41,0,0.747,0.337,0.747,0.747
				c0,0.41-0.337,0.732-0.747,0.732C201.814,467.203,201.477,466.881,201.477,466.471z M201.667,475.289v-7.075h1.099v7.075H201.667
				z"/>
			<path style="fill:#102028;" d="M204.582,477.105l0.556-0.82c0.586,0.703,1.289,0.967,2.3,0.967c1.172,0,2.27-0.571,2.27-2.124
				v-1.011c-0.513,0.718-1.377,1.26-2.373,1.26c-1.845,0-3.149-1.377-3.149-3.662c0-2.27,1.289-3.677,3.149-3.677
				c0.952,0,1.802,0.469,2.373,1.245v-1.069h1.099v6.87c0,2.344-1.641,3.076-3.369,3.076
				C206.237,478.16,205.417,477.926,204.582,477.105z M209.709,473.253v-3.091c-0.381-0.615-1.23-1.143-2.109-1.143
				c-1.421,0-2.27,1.128-2.27,2.695c0,1.553,0.849,2.695,2.27,2.695C208.478,474.41,209.328,473.868,209.709,473.253z"/>
			<path style="fill:#102028;" d="M217.413,475.289v-4.629c0-1.245-0.63-1.641-1.582-1.641c-0.865,0-1.685,0.527-2.095,1.099v5.17
				h-1.099v-7.075h1.099v1.025c0.498-0.586,1.464-1.201,2.519-1.201c1.48,0,2.256,0.747,2.256,2.285v4.966H217.413z"/>
			<path style="fill:#102028;" d="M219.932,471.744c0-2.051,1.465-3.706,3.486-3.706c2.139,0,3.398,1.67,3.398,3.794v0.279h-5.727
				c0.088,1.333,1.025,2.446,2.549,2.446c0.806,0,1.626-0.322,2.183-0.894l0.527,0.718c-0.703,0.703-1.655,1.084-2.812,1.084
				C221.441,475.465,219.932,473.956,219.932,471.744z M223.404,468.947c-1.509,0-2.256,1.274-2.314,2.358h4.643
				C225.718,470.25,225.015,468.947,223.404,468.947z"/>
			<path style="fill:#102028;" d="M233.35,475.289v-1.055c-0.527,0.718-1.392,1.23-2.388,1.23c-1.846,0-3.149-1.406-3.149-3.706
				c0-2.256,1.289-3.721,3.149-3.721c0.952,0,1.817,0.469,2.388,1.245v-3.765h1.098v9.77H233.35z M233.35,473.37v-3.208
				c-0.396-0.615-1.245-1.143-2.124-1.143c-1.421,0-2.27,1.172-2.27,2.739c0,1.567,0.849,2.724,2.27,2.724
				C232.105,474.483,232.954,473.986,233.35,473.37z"/>
			<path style="fill:#102028;" d="M239.692,475.289v-9.77h1.098v3.765c0.572-0.776,1.421-1.245,2.388-1.245
				c1.845,0,3.149,1.465,3.149,3.721c0,2.299-1.304,3.706-3.149,3.706c-0.996,0-1.86-0.513-2.388-1.23v1.055H239.692z
				 M242.9,474.483c1.436,0,2.286-1.157,2.286-2.724c0-1.568-0.85-2.739-2.286-2.739c-0.864,0-1.728,0.527-2.109,1.143v3.208
				C241.171,473.986,242.036,474.483,242.9,474.483z"/>
			<path style="fill:#102028;" d="M247.529,477.061c0.161,0.073,0.425,0.117,0.601,0.117c0.483,0,0.805-0.161,1.055-0.747
				l0.469-1.069l-2.959-7.148h1.187l2.358,5.8l2.344-5.8h1.201l-3.545,8.51c-0.425,1.025-1.143,1.421-2.08,1.435
				c-0.234,0-0.601-0.044-0.805-0.103L247.529,477.061z"/>
		</g>
	</g>
</g>
</svg>
